<?xml version="1.0" encoding="iso-8859-1"?>
<!-- Uploaded to: SVG Repo, www.svgrepo.com, Generator: SVG Repo Mixer Tools -->
<svg height="800px" width="800px" version="1.1" id="Layer_1" xmlns="http://www.w3.org/2000/svg" xmlns:xlink="http://www.w3.org/1999/xlink" 
	 viewBox="0 0 512 512" xml:space="preserve">
<path style="fill:#D8842A;" d="M83.478,339.478H58.957C26.446,339.478,0,313.032,0,280.521V256c0-9.217,7.479-16.696,16.696-16.696
	S33.391,246.783,33.391,256v24.521c0,14.098,11.468,25.565,25.565,25.565h24.521c9.217,0,16.696,7.479,16.696,16.696
	S92.695,339.478,83.478,339.478z"/>
<path style="fill:#E79D2E;" d="M475.492,239.304h-13.468c-4.675-8.904-10.351-17.475-16.807-25.6v-91.27
	c0-9.238-7.457-16.696-16.696-16.696c-32.056,0-60.661,18.143-74.574,45.857c-19.59-6.344-42.184-10.463-64.557-11.798
	c-5.677-0.445-11.242-0.668-16.696-0.668c-111.638,0-205.913,76.466-205.913,166.957c0,47.972,24.264,92.828,66.783,124.55v59.103
	c0,9.238,7.457,16.696,16.696,16.696h66.783c9.238,0,16.696-7.457,16.696-16.696v-19.256c12.466,1.67,26.379,2.56,38.957,2.56
	c5.343,0,11.019-0.111,16.696-0.557c7.569-0.334,15.137-1.002,22.261-2.005v19.257c0,9.238,7.457,16.696,16.696,16.696h66.783
	c9.238,0,16.696-7.457,16.696-16.696v-59.103c21.593-16.028,38.623-35.729,50.198-57.767h13.468
	c20.147,0,36.508-16.362,36.508-36.508v-60.55C512,255.666,495.638,239.304,475.492,239.304z"/>
<path style="fill:#D8842A;" d="M512,275.812v60.55c0,20.146-16.362,36.508-36.508,36.508h-13.468
	c-11.576,22.038-28.605,41.739-50.198,57.767v59.103c0,9.238-7.457,16.696-16.696,16.696h-66.783
	c-9.238,0-16.696-7.457-16.696-16.696v-19.256c-7.123,1.002-14.692,1.67-22.261,2.005v-332.69
	c22.372,1.336,44.967,5.454,64.557,11.798c13.913-27.715,42.518-45.857,74.574-45.857c9.238,0,16.696,7.457,16.696,16.696v91.27
	c6.456,8.125,12.132,16.696,16.807,25.6h13.468C495.638,239.304,512,255.666,512,275.812z"/>
<path style="fill:#6E6057;" d="M184.957,264.076c-5.207,0-10.337-2.424-13.598-6.989c-5.358-7.5-3.62-17.924,3.88-23.294
	c23.707-16.935,61.956-27.881,97.457-27.881c9.217,0,16.696,7.479,16.696,16.696s-7.479,16.696-16.696,16.696
	c-28.554,0-59.913,8.706-78.043,21.663C191.706,263.066,188.315,264.076,184.957,264.076z"/>
<circle style="fill:#615349;" cx="395.13" cy="289.391" r="16.696"/>
<path style="fill:#F6DF5A;" d="M133.565,139.13c-36.826,0-66.783-29.956-66.783-66.783S96.739,5.565,133.565,5.565
	s66.783,29.956,66.783,66.783S170.391,139.13,133.565,139.13z"/>
<path style="fill:#F0CA45;" d="M133.565,38.957c-18.413,0-33.391,14.978-33.391,33.391s14.978,33.391,33.391,33.391
	s33.391-14.978,33.391-33.391S151.978,38.957,133.565,38.957z"/>
</svg>